<mxfile host="app.diagrams.net" modified="2023-11-06T16:17:28.530Z" agent="Mozilla/5.0 (Windows NT 10.0; Win64; x64) AppleWebKit/537.36 (KHTML, like Gecko) Chrome/119.0.0.0 Safari/537.36 Edg/119.0.0.0" etag="mKv2xQW2CcTNyoRPmKgW" version="22.0.8" type="device" pages="7">
  <diagram id="s9p89TYLW3Hx2I7aJOz9" name="bai thuc hanh 3">
    <mxGraphModel dx="946" dy="605" grid="1" gridSize="10" guides="1" tooltips="1" connect="1" arrows="1" fold="1" page="1" pageScale="1" pageWidth="850" pageHeight="1100" math="0" shadow="0">
      <root>
        <mxCell id="0" />
        <mxCell id="1" parent="0" />
        <mxCell id="pAT0AD26lfPQ9GukiVb2-2" style="edgeStyle=orthogonalEdgeStyle;rounded=0;orthogonalLoop=1;jettySize=auto;html=1;exitX=0.5;exitY=1;exitDx=0;exitDy=0;entryX=0.5;entryY=0;entryDx=0;entryDy=0;" parent="1" source="pAT0AD26lfPQ9GukiVb2-3" target="pAT0AD26lfPQ9GukiVb2-5" edge="1">
          <mxGeometry relative="1" as="geometry" />
        </mxCell>
        <mxCell id="pAT0AD26lfPQ9GukiVb2-3" value="a,b,c, max" style="rounded=0;whiteSpace=wrap;html=1;" parent="1" vertex="1">
          <mxGeometry x="330" y="290" width="120" height="60" as="geometry" />
        </mxCell>
        <mxCell id="pAT0AD26lfPQ9GukiVb2-4" style="edgeStyle=orthogonalEdgeStyle;rounded=0;orthogonalLoop=1;jettySize=auto;html=1;exitX=0.5;exitY=1;exitDx=0;exitDy=0;entryX=0.5;entryY=0;entryDx=0;entryDy=0;" parent="1" source="pAT0AD26lfPQ9GukiVb2-5" target="pAT0AD26lfPQ9GukiVb2-7" edge="1">
          <mxGeometry relative="1" as="geometry" />
        </mxCell>
        <mxCell id="pAT0AD26lfPQ9GukiVb2-5" value="a,b,c" style="shape=parallelogram;perimeter=parallelogramPerimeter;whiteSpace=wrap;html=1;fixedSize=1;" parent="1" vertex="1">
          <mxGeometry x="330" y="420" width="120" height="60" as="geometry" />
        </mxCell>
        <mxCell id="pAT0AD26lfPQ9GukiVb2-6" style="edgeStyle=orthogonalEdgeStyle;rounded=0;orthogonalLoop=1;jettySize=auto;html=1;exitX=1;exitY=0.5;exitDx=0;exitDy=0;" parent="1" source="pAT0AD26lfPQ9GukiVb2-7" target="pAT0AD26lfPQ9GukiVb2-8" edge="1">
          <mxGeometry relative="1" as="geometry" />
        </mxCell>
        <mxCell id="pAT0AD26lfPQ9GukiVb2-7" value="max=a" style="rounded=0;whiteSpace=wrap;html=1;" parent="1" vertex="1">
          <mxGeometry x="330" y="555" width="120" height="60" as="geometry" />
        </mxCell>
        <mxCell id="pAT0AD26lfPQ9GukiVb2-8" value="max&amp;lt;b" style="rhombus;whiteSpace=wrap;html=1;" parent="1" vertex="1">
          <mxGeometry x="520" y="545" width="80" height="80" as="geometry" />
        </mxCell>
        <mxCell id="pAT0AD26lfPQ9GukiVb2-9" style="edgeStyle=orthogonalEdgeStyle;rounded=0;orthogonalLoop=1;jettySize=auto;html=1;exitX=1;exitY=0.5;exitDx=0;exitDy=0;entryX=0.5;entryY=0;entryDx=0;entryDy=0;" parent="1" source="pAT0AD26lfPQ9GukiVb2-10" target="pAT0AD26lfPQ9GukiVb2-19" edge="1">
          <mxGeometry relative="1" as="geometry" />
        </mxCell>
        <mxCell id="pAT0AD26lfPQ9GukiVb2-10" value="max=b" style="rounded=0;whiteSpace=wrap;html=1;" parent="1" vertex="1">
          <mxGeometry x="660" y="390" width="120" height="60" as="geometry" />
        </mxCell>
        <mxCell id="pAT0AD26lfPQ9GukiVb2-11" value="" style="endArrow=classic;html=1;rounded=0;exitX=0.5;exitY=0;exitDx=0;exitDy=0;entryX=0;entryY=0.5;entryDx=0;entryDy=0;" parent="1" source="pAT0AD26lfPQ9GukiVb2-8" target="pAT0AD26lfPQ9GukiVb2-10" edge="1">
          <mxGeometry relative="1" as="geometry">
            <mxPoint x="530" y="490" as="sourcePoint" />
            <mxPoint x="630" y="490" as="targetPoint" />
            <Array as="points">
              <mxPoint x="560" y="420" />
            </Array>
          </mxGeometry>
        </mxCell>
        <mxCell id="pAT0AD26lfPQ9GukiVb2-12" value="true" style="edgeLabel;resizable=0;html=1;align=center;verticalAlign=middle;" parent="pAT0AD26lfPQ9GukiVb2-11" connectable="0" vertex="1">
          <mxGeometry relative="1" as="geometry">
            <mxPoint y="-12" as="offset" />
          </mxGeometry>
        </mxCell>
        <mxCell id="pAT0AD26lfPQ9GukiVb2-13" value="f" style="endArrow=classic;html=1;rounded=0;exitX=1;exitY=0.5;exitDx=0;exitDy=0;" parent="1" source="pAT0AD26lfPQ9GukiVb2-8" target="pAT0AD26lfPQ9GukiVb2-19" edge="1">
          <mxGeometry relative="1" as="geometry">
            <mxPoint x="610" y="585" as="sourcePoint" />
            <mxPoint x="810" y="585" as="targetPoint" />
          </mxGeometry>
        </mxCell>
        <mxCell id="pAT0AD26lfPQ9GukiVb2-14" value="false" style="edgeLabel;resizable=0;html=1;align=center;verticalAlign=middle;" parent="pAT0AD26lfPQ9GukiVb2-13" connectable="0" vertex="1">
          <mxGeometry relative="1" as="geometry" />
        </mxCell>
        <mxCell id="pAT0AD26lfPQ9GukiVb2-15" style="edgeStyle=orthogonalEdgeStyle;rounded=0;orthogonalLoop=1;jettySize=auto;html=1;exitX=0.5;exitY=1;exitDx=0;exitDy=0;entryX=0;entryY=0.5;entryDx=0;entryDy=0;" parent="1" source="pAT0AD26lfPQ9GukiVb2-19" target="pAT0AD26lfPQ9GukiVb2-20" edge="1">
          <mxGeometry relative="1" as="geometry" />
        </mxCell>
        <mxCell id="pAT0AD26lfPQ9GukiVb2-16" value="true" style="edgeLabel;html=1;align=center;verticalAlign=middle;resizable=0;points=[];" parent="pAT0AD26lfPQ9GukiVb2-15" vertex="1" connectable="0">
          <mxGeometry x="0.0069" y="1" relative="1" as="geometry">
            <mxPoint as="offset" />
          </mxGeometry>
        </mxCell>
        <mxCell id="pAT0AD26lfPQ9GukiVb2-17" style="edgeStyle=orthogonalEdgeStyle;rounded=0;orthogonalLoop=1;jettySize=auto;html=1;exitX=1;exitY=0.5;exitDx=0;exitDy=0;" parent="1" source="pAT0AD26lfPQ9GukiVb2-19" edge="1">
          <mxGeometry relative="1" as="geometry">
            <mxPoint x="920" y="480" as="targetPoint" />
          </mxGeometry>
        </mxCell>
        <mxCell id="pAT0AD26lfPQ9GukiVb2-18" value="false" style="edgeLabel;html=1;align=center;verticalAlign=middle;resizable=0;points=[];" parent="pAT0AD26lfPQ9GukiVb2-17" vertex="1" connectable="0">
          <mxGeometry x="0.2576" y="-1" relative="1" as="geometry">
            <mxPoint as="offset" />
          </mxGeometry>
        </mxCell>
        <mxCell id="pAT0AD26lfPQ9GukiVb2-19" value="max&amp;lt;c" style="rhombus;whiteSpace=wrap;html=1;" parent="1" vertex="1">
          <mxGeometry x="800" y="545" width="80" height="80" as="geometry" />
        </mxCell>
        <mxCell id="pAT0AD26lfPQ9GukiVb2-20" value="max=c" style="rounded=0;whiteSpace=wrap;html=1;" parent="1" vertex="1">
          <mxGeometry x="910" y="670" width="120" height="60" as="geometry" />
        </mxCell>
        <mxCell id="pAT0AD26lfPQ9GukiVb2-21" style="edgeStyle=orthogonalEdgeStyle;rounded=0;orthogonalLoop=1;jettySize=auto;html=1;exitX=1;exitY=0.5;exitDx=0;exitDy=0;" parent="1" source="pAT0AD26lfPQ9GukiVb2-22" edge="1">
          <mxGeometry relative="1" as="geometry">
            <mxPoint x="1120" y="450" as="targetPoint" />
          </mxGeometry>
        </mxCell>
        <mxCell id="pAT0AD26lfPQ9GukiVb2-22" value="max" style="shape=parallelogram;perimeter=parallelogramPerimeter;whiteSpace=wrap;html=1;fixedSize=1;" parent="1" vertex="1">
          <mxGeometry x="900" y="420" width="120" height="60" as="geometry" />
        </mxCell>
        <mxCell id="pAT0AD26lfPQ9GukiVb2-23" style="edgeStyle=orthogonalEdgeStyle;rounded=0;orthogonalLoop=1;jettySize=auto;html=1;exitX=0.5;exitY=0;exitDx=0;exitDy=0;entryX=0.588;entryY=1.025;entryDx=0;entryDy=0;entryPerimeter=0;" parent="1" source="pAT0AD26lfPQ9GukiVb2-20" target="pAT0AD26lfPQ9GukiVb2-22" edge="1">
          <mxGeometry relative="1" as="geometry" />
        </mxCell>
        <mxCell id="pAT0AD26lfPQ9GukiVb2-24" value="end" style="ellipse;whiteSpace=wrap;html=1;" parent="1" vertex="1">
          <mxGeometry x="1121" y="410" width="120" height="80" as="geometry" />
        </mxCell>
        <mxCell id="pAT0AD26lfPQ9GukiVb2-26" value="" style="edgeStyle=orthogonalEdgeStyle;rounded=0;orthogonalLoop=1;jettySize=auto;html=1;" parent="1" source="pAT0AD26lfPQ9GukiVb2-25" target="pAT0AD26lfPQ9GukiVb2-3" edge="1">
          <mxGeometry relative="1" as="geometry" />
        </mxCell>
        <mxCell id="pAT0AD26lfPQ9GukiVb2-25" value="start" style="ellipse;whiteSpace=wrap;html=1;" parent="1" vertex="1">
          <mxGeometry x="330" y="100" width="120" height="80" as="geometry" />
        </mxCell>
      </root>
    </mxGraphModel>
  </diagram>
  <diagram id="C5RBs43oDa-KdzZeNtuy" name="bai 1">
    <mxGraphModel dx="946" dy="605" grid="1" gridSize="10" guides="1" tooltips="1" connect="1" arrows="1" fold="1" page="1" pageScale="1" pageWidth="827" pageHeight="1169" math="0" shadow="0">
      <root>
        <mxCell id="WIyWlLk6GJQsqaUBKTNV-0" />
        <mxCell id="WIyWlLk6GJQsqaUBKTNV-1" parent="WIyWlLk6GJQsqaUBKTNV-0" />
        <mxCell id="4qd69MtjSIqvVjNy5SqL-2" style="edgeStyle=orthogonalEdgeStyle;rounded=0;orthogonalLoop=1;jettySize=auto;html=1;" parent="WIyWlLk6GJQsqaUBKTNV-1" source="4qd69MtjSIqvVjNy5SqL-0" target="4qd69MtjSIqvVjNy5SqL-1" edge="1">
          <mxGeometry relative="1" as="geometry" />
        </mxCell>
        <mxCell id="4qd69MtjSIqvVjNy5SqL-0" value="start&lt;br&gt;" style="ellipse;whiteSpace=wrap;html=1;" parent="WIyWlLk6GJQsqaUBKTNV-1" vertex="1">
          <mxGeometry x="330" y="110" width="120" height="80" as="geometry" />
        </mxCell>
        <mxCell id="4qd69MtjSIqvVjNy5SqL-4" style="edgeStyle=orthogonalEdgeStyle;rounded=0;orthogonalLoop=1;jettySize=auto;html=1;exitX=0.5;exitY=1;exitDx=0;exitDy=0;entryX=0.5;entryY=0;entryDx=0;entryDy=0;" parent="WIyWlLk6GJQsqaUBKTNV-1" source="4qd69MtjSIqvVjNy5SqL-1" target="4qd69MtjSIqvVjNy5SqL-3" edge="1">
          <mxGeometry relative="1" as="geometry" />
        </mxCell>
        <mxCell id="4qd69MtjSIqvVjNy5SqL-1" value="a,b,c, min" style="rounded=0;whiteSpace=wrap;html=1;" parent="WIyWlLk6GJQsqaUBKTNV-1" vertex="1">
          <mxGeometry x="330" y="290" width="120" height="60" as="geometry" />
        </mxCell>
        <mxCell id="4qd69MtjSIqvVjNy5SqL-6" style="edgeStyle=orthogonalEdgeStyle;rounded=0;orthogonalLoop=1;jettySize=auto;html=1;exitX=0.5;exitY=1;exitDx=0;exitDy=0;entryX=0.5;entryY=0;entryDx=0;entryDy=0;" parent="WIyWlLk6GJQsqaUBKTNV-1" source="4qd69MtjSIqvVjNy5SqL-3" target="4qd69MtjSIqvVjNy5SqL-5" edge="1">
          <mxGeometry relative="1" as="geometry" />
        </mxCell>
        <mxCell id="4qd69MtjSIqvVjNy5SqL-3" value="a,b,c" style="shape=parallelogram;perimeter=parallelogramPerimeter;whiteSpace=wrap;html=1;fixedSize=1;" parent="WIyWlLk6GJQsqaUBKTNV-1" vertex="1">
          <mxGeometry x="330" y="420" width="120" height="60" as="geometry" />
        </mxCell>
        <mxCell id="4qd69MtjSIqvVjNy5SqL-9" style="edgeStyle=orthogonalEdgeStyle;rounded=0;orthogonalLoop=1;jettySize=auto;html=1;exitX=1;exitY=0.5;exitDx=0;exitDy=0;" parent="WIyWlLk6GJQsqaUBKTNV-1" source="4qd69MtjSIqvVjNy5SqL-5" target="4qd69MtjSIqvVjNy5SqL-8" edge="1">
          <mxGeometry relative="1" as="geometry" />
        </mxCell>
        <mxCell id="4qd69MtjSIqvVjNy5SqL-5" value="min=a" style="rounded=0;whiteSpace=wrap;html=1;" parent="WIyWlLk6GJQsqaUBKTNV-1" vertex="1">
          <mxGeometry x="330" y="555" width="120" height="60" as="geometry" />
        </mxCell>
        <mxCell id="4qd69MtjSIqvVjNy5SqL-8" value="min&amp;gt;b" style="rhombus;whiteSpace=wrap;html=1;" parent="WIyWlLk6GJQsqaUBKTNV-1" vertex="1">
          <mxGeometry x="520" y="545" width="80" height="80" as="geometry" />
        </mxCell>
        <mxCell id="4qd69MtjSIqvVjNy5SqL-20" style="edgeStyle=orthogonalEdgeStyle;rounded=0;orthogonalLoop=1;jettySize=auto;html=1;exitX=1;exitY=0.5;exitDx=0;exitDy=0;entryX=0.5;entryY=0;entryDx=0;entryDy=0;" parent="WIyWlLk6GJQsqaUBKTNV-1" source="4qd69MtjSIqvVjNy5SqL-12" target="4qd69MtjSIqvVjNy5SqL-19" edge="1">
          <mxGeometry relative="1" as="geometry" />
        </mxCell>
        <mxCell id="4qd69MtjSIqvVjNy5SqL-12" value="min=b" style="rounded=0;whiteSpace=wrap;html=1;" parent="WIyWlLk6GJQsqaUBKTNV-1" vertex="1">
          <mxGeometry x="660" y="390" width="120" height="60" as="geometry" />
        </mxCell>
        <mxCell id="4qd69MtjSIqvVjNy5SqL-13" value="" style="endArrow=classic;html=1;rounded=0;exitX=0.5;exitY=0;exitDx=0;exitDy=0;entryX=0;entryY=0.5;entryDx=0;entryDy=0;" parent="WIyWlLk6GJQsqaUBKTNV-1" source="4qd69MtjSIqvVjNy5SqL-8" target="4qd69MtjSIqvVjNy5SqL-12" edge="1">
          <mxGeometry relative="1" as="geometry">
            <mxPoint x="530" y="490" as="sourcePoint" />
            <mxPoint x="630" y="490" as="targetPoint" />
            <Array as="points">
              <mxPoint x="560" y="420" />
            </Array>
          </mxGeometry>
        </mxCell>
        <mxCell id="4qd69MtjSIqvVjNy5SqL-14" value="true" style="edgeLabel;resizable=0;html=1;align=center;verticalAlign=middle;" parent="4qd69MtjSIqvVjNy5SqL-13" connectable="0" vertex="1">
          <mxGeometry relative="1" as="geometry">
            <mxPoint y="-12" as="offset" />
          </mxGeometry>
        </mxCell>
        <mxCell id="4qd69MtjSIqvVjNy5SqL-15" value="f" style="endArrow=classic;html=1;rounded=0;exitX=1;exitY=0.5;exitDx=0;exitDy=0;" parent="WIyWlLk6GJQsqaUBKTNV-1" source="4qd69MtjSIqvVjNy5SqL-8" target="4qd69MtjSIqvVjNy5SqL-19" edge="1">
          <mxGeometry relative="1" as="geometry">
            <mxPoint x="610" y="585" as="sourcePoint" />
            <mxPoint x="810" y="585" as="targetPoint" />
          </mxGeometry>
        </mxCell>
        <mxCell id="4qd69MtjSIqvVjNy5SqL-16" value="false" style="edgeLabel;resizable=0;html=1;align=center;verticalAlign=middle;" parent="4qd69MtjSIqvVjNy5SqL-15" connectable="0" vertex="1">
          <mxGeometry relative="1" as="geometry" />
        </mxCell>
        <mxCell id="4qd69MtjSIqvVjNy5SqL-25" style="edgeStyle=orthogonalEdgeStyle;rounded=0;orthogonalLoop=1;jettySize=auto;html=1;exitX=0.5;exitY=1;exitDx=0;exitDy=0;entryX=0;entryY=0.5;entryDx=0;entryDy=0;" parent="WIyWlLk6GJQsqaUBKTNV-1" source="4qd69MtjSIqvVjNy5SqL-19" target="4qd69MtjSIqvVjNy5SqL-24" edge="1">
          <mxGeometry relative="1" as="geometry" />
        </mxCell>
        <mxCell id="4qd69MtjSIqvVjNy5SqL-26" value="true" style="edgeLabel;html=1;align=center;verticalAlign=middle;resizable=0;points=[];" parent="4qd69MtjSIqvVjNy5SqL-25" vertex="1" connectable="0">
          <mxGeometry x="0.0069" y="1" relative="1" as="geometry">
            <mxPoint as="offset" />
          </mxGeometry>
        </mxCell>
        <mxCell id="4qd69MtjSIqvVjNy5SqL-27" style="edgeStyle=orthogonalEdgeStyle;rounded=0;orthogonalLoop=1;jettySize=auto;html=1;exitX=1;exitY=0.5;exitDx=0;exitDy=0;" parent="WIyWlLk6GJQsqaUBKTNV-1" source="4qd69MtjSIqvVjNy5SqL-19" edge="1">
          <mxGeometry relative="1" as="geometry">
            <mxPoint x="920" y="480" as="targetPoint" />
          </mxGeometry>
        </mxCell>
        <mxCell id="4qd69MtjSIqvVjNy5SqL-29" value="false" style="edgeLabel;html=1;align=center;verticalAlign=middle;resizable=0;points=[];" parent="4qd69MtjSIqvVjNy5SqL-27" vertex="1" connectable="0">
          <mxGeometry x="0.2576" y="-1" relative="1" as="geometry">
            <mxPoint as="offset" />
          </mxGeometry>
        </mxCell>
        <mxCell id="4qd69MtjSIqvVjNy5SqL-19" value="min&amp;gt;c" style="rhombus;whiteSpace=wrap;html=1;" parent="WIyWlLk6GJQsqaUBKTNV-1" vertex="1">
          <mxGeometry x="800" y="545" width="80" height="80" as="geometry" />
        </mxCell>
        <mxCell id="4qd69MtjSIqvVjNy5SqL-24" value="min=c" style="rounded=0;whiteSpace=wrap;html=1;" parent="WIyWlLk6GJQsqaUBKTNV-1" vertex="1">
          <mxGeometry x="910" y="670" width="120" height="60" as="geometry" />
        </mxCell>
        <mxCell id="4qd69MtjSIqvVjNy5SqL-31" style="edgeStyle=orthogonalEdgeStyle;rounded=0;orthogonalLoop=1;jettySize=auto;html=1;exitX=1;exitY=0.5;exitDx=0;exitDy=0;" parent="WIyWlLk6GJQsqaUBKTNV-1" source="4qd69MtjSIqvVjNy5SqL-28" edge="1">
          <mxGeometry relative="1" as="geometry">
            <mxPoint x="1120" y="450" as="targetPoint" />
          </mxGeometry>
        </mxCell>
        <mxCell id="4qd69MtjSIqvVjNy5SqL-28" value="min" style="shape=parallelogram;perimeter=parallelogramPerimeter;whiteSpace=wrap;html=1;fixedSize=1;" parent="WIyWlLk6GJQsqaUBKTNV-1" vertex="1">
          <mxGeometry x="900" y="420" width="120" height="60" as="geometry" />
        </mxCell>
        <mxCell id="4qd69MtjSIqvVjNy5SqL-30" style="edgeStyle=orthogonalEdgeStyle;rounded=0;orthogonalLoop=1;jettySize=auto;html=1;exitX=0.5;exitY=0;exitDx=0;exitDy=0;entryX=0.588;entryY=1.025;entryDx=0;entryDy=0;entryPerimeter=0;" parent="WIyWlLk6GJQsqaUBKTNV-1" source="4qd69MtjSIqvVjNy5SqL-24" target="4qd69MtjSIqvVjNy5SqL-28" edge="1">
          <mxGeometry relative="1" as="geometry" />
        </mxCell>
        <mxCell id="4qd69MtjSIqvVjNy5SqL-32" value="end" style="ellipse;whiteSpace=wrap;html=1;" parent="WIyWlLk6GJQsqaUBKTNV-1" vertex="1">
          <mxGeometry x="1121" y="410" width="120" height="80" as="geometry" />
        </mxCell>
      </root>
    </mxGraphModel>
  </diagram>
  <diagram id="xL_KTnl9x8zyJy_jP-c-" name="bai 2">
    <mxGraphModel dx="946" dy="605" grid="1" gridSize="10" guides="1" tooltips="1" connect="1" arrows="1" fold="1" page="1" pageScale="1" pageWidth="850" pageHeight="1100" math="0" shadow="0">
      <root>
        <mxCell id="0" />
        <mxCell id="1" parent="0" />
        <mxCell id="KIkrFYa8ixcjVwqiti2t-1" style="edgeStyle=orthogonalEdgeStyle;rounded=0;orthogonalLoop=1;jettySize=auto;html=1;entryX=0.5;entryY=0;entryDx=0;entryDy=0;" parent="1" source="52E5Er9WC3IkH_oBbzpE-26" target="VKvYxCTxG86FcfuK7LOq-1" edge="1">
          <mxGeometry relative="1" as="geometry" />
        </mxCell>
        <mxCell id="52E5Er9WC3IkH_oBbzpE-26" value="start" style="ellipse;whiteSpace=wrap;html=1;" parent="1" vertex="1">
          <mxGeometry x="240" y="150" width="120" height="80" as="geometry" />
        </mxCell>
        <mxCell id="KIkrFYa8ixcjVwqiti2t-2" style="edgeStyle=orthogonalEdgeStyle;rounded=0;orthogonalLoop=1;jettySize=auto;html=1;exitX=0.5;exitY=1;exitDx=0;exitDy=0;" parent="1" source="VKvYxCTxG86FcfuK7LOq-1" target="VKvYxCTxG86FcfuK7LOq-2" edge="1">
          <mxGeometry relative="1" as="geometry" />
        </mxCell>
        <mxCell id="VKvYxCTxG86FcfuK7LOq-1" value="a,b,x" style="rounded=0;whiteSpace=wrap;html=1;" parent="1" vertex="1">
          <mxGeometry x="240" y="280" width="120" height="60" as="geometry" />
        </mxCell>
        <mxCell id="FW7Me8QOUdCKvDrKsiFs-2" style="edgeStyle=orthogonalEdgeStyle;rounded=0;orthogonalLoop=1;jettySize=auto;html=1;entryX=0.5;entryY=0;entryDx=0;entryDy=0;" parent="1" source="VKvYxCTxG86FcfuK7LOq-2" target="FW7Me8QOUdCKvDrKsiFs-1" edge="1">
          <mxGeometry relative="1" as="geometry" />
        </mxCell>
        <mxCell id="VKvYxCTxG86FcfuK7LOq-2" value="a,b" style="shape=parallelogram;perimeter=parallelogramPerimeter;whiteSpace=wrap;html=1;fixedSize=1;" parent="1" vertex="1">
          <mxGeometry x="240" y="400" width="120" height="60" as="geometry" />
        </mxCell>
        <mxCell id="FW7Me8QOUdCKvDrKsiFs-7" style="edgeStyle=orthogonalEdgeStyle;rounded=0;orthogonalLoop=1;jettySize=auto;html=1;" parent="1" source="FW7Me8QOUdCKvDrKsiFs-1" edge="1">
          <mxGeometry relative="1" as="geometry">
            <mxPoint x="300" y="690" as="targetPoint" />
          </mxGeometry>
        </mxCell>
        <mxCell id="FW7Me8QOUdCKvDrKsiFs-9" value="false" style="edgeLabel;html=1;align=center;verticalAlign=middle;resizable=0;points=[];" parent="FW7Me8QOUdCKvDrKsiFs-7" vertex="1" connectable="0">
          <mxGeometry x="-0.0311" y="-3" relative="1" as="geometry">
            <mxPoint as="offset" />
          </mxGeometry>
        </mxCell>
        <mxCell id="8ZfI5LyT0u10qCumd79V-4" style="edgeStyle=orthogonalEdgeStyle;rounded=0;orthogonalLoop=1;jettySize=auto;html=1;" edge="1" parent="1" source="FW7Me8QOUdCKvDrKsiFs-1" target="8ZfI5LyT0u10qCumd79V-3">
          <mxGeometry relative="1" as="geometry" />
        </mxCell>
        <mxCell id="8ZfI5LyT0u10qCumd79V-5" value="true" style="edgeLabel;html=1;align=center;verticalAlign=middle;resizable=0;points=[];" vertex="1" connectable="0" parent="8ZfI5LyT0u10qCumd79V-4">
          <mxGeometry x="-0.1429" relative="1" as="geometry">
            <mxPoint y="1" as="offset" />
          </mxGeometry>
        </mxCell>
        <mxCell id="FW7Me8QOUdCKvDrKsiFs-1" value="a=0" style="rhombus;whiteSpace=wrap;html=1;" parent="1" vertex="1">
          <mxGeometry x="260" y="530" width="80" height="80" as="geometry" />
        </mxCell>
        <mxCell id="8ZfI5LyT0u10qCumd79V-11" style="edgeStyle=orthogonalEdgeStyle;rounded=0;orthogonalLoop=1;jettySize=auto;html=1;exitX=0.5;exitY=1;exitDx=0;exitDy=0;entryX=0.75;entryY=0;entryDx=0;entryDy=0;" edge="1" parent="1" source="FW7Me8QOUdCKvDrKsiFs-4" target="FW7Me8QOUdCKvDrKsiFs-16">
          <mxGeometry relative="1" as="geometry" />
        </mxCell>
        <mxCell id="FW7Me8QOUdCKvDrKsiFs-4" value="x=vo nghiem" style="whiteSpace=wrap;html=1;shape=label;fixedSize=1;rounded=0;" parent="1" vertex="1">
          <mxGeometry x="720" y="530" width="110" height="80" as="geometry" />
        </mxCell>
        <mxCell id="FW7Me8QOUdCKvDrKsiFs-11" style="edgeStyle=orthogonalEdgeStyle;rounded=0;orthogonalLoop=1;jettySize=auto;html=1;entryX=0;entryY=0.5;entryDx=0;entryDy=0;" parent="1" source="FW7Me8QOUdCKvDrKsiFs-8" target="FW7Me8QOUdCKvDrKsiFs-10" edge="1">
          <mxGeometry relative="1" as="geometry" />
        </mxCell>
        <mxCell id="FW7Me8QOUdCKvDrKsiFs-12" value="true" style="edgeLabel;html=1;align=center;verticalAlign=middle;resizable=0;points=[];" parent="FW7Me8QOUdCKvDrKsiFs-11" vertex="1" connectable="0">
          <mxGeometry x="0.0276" y="-2" relative="1" as="geometry">
            <mxPoint as="offset" />
          </mxGeometry>
        </mxCell>
        <mxCell id="FW7Me8QOUdCKvDrKsiFs-14" style="edgeStyle=orthogonalEdgeStyle;rounded=0;orthogonalLoop=1;jettySize=auto;html=1;" parent="1" source="FW7Me8QOUdCKvDrKsiFs-8" target="FW7Me8QOUdCKvDrKsiFs-13" edge="1">
          <mxGeometry relative="1" as="geometry" />
        </mxCell>
        <mxCell id="FW7Me8QOUdCKvDrKsiFs-15" value="false" style="edgeLabel;html=1;align=center;verticalAlign=middle;resizable=0;points=[];" parent="FW7Me8QOUdCKvDrKsiFs-14" vertex="1" connectable="0">
          <mxGeometry x="0.0778" y="1" relative="1" as="geometry">
            <mxPoint as="offset" />
          </mxGeometry>
        </mxCell>
        <mxCell id="FW7Me8QOUdCKvDrKsiFs-8" value="b=0" style="rhombus;whiteSpace=wrap;html=1;" parent="1" vertex="1">
          <mxGeometry x="260" y="690" width="80" height="80" as="geometry" />
        </mxCell>
        <mxCell id="FW7Me8QOUdCKvDrKsiFs-19" style="edgeStyle=orthogonalEdgeStyle;rounded=0;orthogonalLoop=1;jettySize=auto;html=1;entryX=0.5;entryY=0;entryDx=0;entryDy=0;" parent="1" source="FW7Me8QOUdCKvDrKsiFs-10" target="FW7Me8QOUdCKvDrKsiFs-16" edge="1">
          <mxGeometry relative="1" as="geometry" />
        </mxCell>
        <mxCell id="FW7Me8QOUdCKvDrKsiFs-10" value="x= vo so nghiem" style="shape=label;whiteSpace=wrap;html=1;fixedSize=1;rounded=0;" parent="1" vertex="1">
          <mxGeometry x="475" y="700" width="120" height="60" as="geometry" />
        </mxCell>
        <mxCell id="FW7Me8QOUdCKvDrKsiFs-17" style="edgeStyle=orthogonalEdgeStyle;rounded=0;orthogonalLoop=1;jettySize=auto;html=1;entryX=0;entryY=0.5;entryDx=0;entryDy=0;" parent="1" source="FW7Me8QOUdCKvDrKsiFs-13" target="FW7Me8QOUdCKvDrKsiFs-16" edge="1">
          <mxGeometry relative="1" as="geometry" />
        </mxCell>
        <mxCell id="FW7Me8QOUdCKvDrKsiFs-13" value="x=-b/a" style="whiteSpace=wrap;html=1;rounded=0;" parent="1" vertex="1">
          <mxGeometry x="235" y="860" width="130" height="80" as="geometry" />
        </mxCell>
        <mxCell id="FW7Me8QOUdCKvDrKsiFs-20" style="edgeStyle=orthogonalEdgeStyle;rounded=0;orthogonalLoop=1;jettySize=auto;html=1;entryX=0.5;entryY=0;entryDx=0;entryDy=0;" parent="1" source="FW7Me8QOUdCKvDrKsiFs-16" target="FW7Me8QOUdCKvDrKsiFs-21" edge="1">
          <mxGeometry relative="1" as="geometry">
            <mxPoint x="720" y="1010" as="targetPoint" />
          </mxGeometry>
        </mxCell>
        <mxCell id="FW7Me8QOUdCKvDrKsiFs-16" value="x" style="shape=parallelogram;perimeter=parallelogramPerimeter;whiteSpace=wrap;html=1;fixedSize=1;" parent="1" vertex="1">
          <mxGeometry x="660" y="870" width="120" height="60" as="geometry" />
        </mxCell>
        <mxCell id="FW7Me8QOUdCKvDrKsiFs-21" value="end" style="ellipse;whiteSpace=wrap;html=1;" parent="1" vertex="1">
          <mxGeometry x="660" y="1030" width="120" height="80" as="geometry" />
        </mxCell>
        <mxCell id="8ZfI5LyT0u10qCumd79V-6" value="" style="edgeStyle=orthogonalEdgeStyle;rounded=0;orthogonalLoop=1;jettySize=auto;html=1;" edge="1" parent="1" source="8ZfI5LyT0u10qCumd79V-3" target="FW7Me8QOUdCKvDrKsiFs-10">
          <mxGeometry relative="1" as="geometry" />
        </mxCell>
        <mxCell id="8ZfI5LyT0u10qCumd79V-7" value="true" style="edgeLabel;html=1;align=center;verticalAlign=middle;resizable=0;points=[];" vertex="1" connectable="0" parent="8ZfI5LyT0u10qCumd79V-6">
          <mxGeometry x="-0.0556" relative="1" as="geometry">
            <mxPoint y="1" as="offset" />
          </mxGeometry>
        </mxCell>
        <mxCell id="8ZfI5LyT0u10qCumd79V-8" value="" style="edgeStyle=orthogonalEdgeStyle;rounded=0;orthogonalLoop=1;jettySize=auto;html=1;" edge="1" parent="1" source="8ZfI5LyT0u10qCumd79V-3" target="FW7Me8QOUdCKvDrKsiFs-4">
          <mxGeometry relative="1" as="geometry" />
        </mxCell>
        <mxCell id="8ZfI5LyT0u10qCumd79V-9" value="false" style="edgeLabel;html=1;align=center;verticalAlign=middle;resizable=0;points=[];" vertex="1" connectable="0" parent="8ZfI5LyT0u10qCumd79V-8">
          <mxGeometry x="-0.0435" y="-1" relative="1" as="geometry">
            <mxPoint y="1" as="offset" />
          </mxGeometry>
        </mxCell>
        <mxCell id="8ZfI5LyT0u10qCumd79V-3" value="b=c" style="rhombus;whiteSpace=wrap;html=1;" vertex="1" parent="1">
          <mxGeometry x="495" y="530" width="80" height="80" as="geometry" />
        </mxCell>
      </root>
    </mxGraphModel>
  </diagram>
  <diagram id="ywmp7ETfLsmhXSc-iTdC" name="bai 3">
    <mxGraphModel dx="946" dy="605" grid="1" gridSize="10" guides="1" tooltips="1" connect="1" arrows="1" fold="1" page="1" pageScale="1" pageWidth="850" pageHeight="1100" math="0" shadow="0">
      <root>
        <mxCell id="0" />
        <mxCell id="1" parent="0" />
        <mxCell id="rCZeh3oalFm6eIV2nrRH-3" value="" style="edgeStyle=orthogonalEdgeStyle;rounded=0;orthogonalLoop=1;jettySize=auto;html=1;" edge="1" parent="1" source="rCZeh3oalFm6eIV2nrRH-1" target="rCZeh3oalFm6eIV2nrRH-2">
          <mxGeometry relative="1" as="geometry" />
        </mxCell>
        <mxCell id="rCZeh3oalFm6eIV2nrRH-1" value="start" style="ellipse;whiteSpace=wrap;html=1;" vertex="1" parent="1">
          <mxGeometry x="180" y="20" width="120" height="80" as="geometry" />
        </mxCell>
        <mxCell id="rCZeh3oalFm6eIV2nrRH-5" value="" style="edgeStyle=orthogonalEdgeStyle;rounded=0;orthogonalLoop=1;jettySize=auto;html=1;" edge="1" parent="1" source="rCZeh3oalFm6eIV2nrRH-2" target="rCZeh3oalFm6eIV2nrRH-4">
          <mxGeometry relative="1" as="geometry" />
        </mxCell>
        <mxCell id="rCZeh3oalFm6eIV2nrRH-2" value="a,b" style="rounded=0;whiteSpace=wrap;html=1;" vertex="1" parent="1">
          <mxGeometry x="180" y="130" width="120" height="60" as="geometry" />
        </mxCell>
        <mxCell id="rCZeh3oalFm6eIV2nrRH-8" value="" style="edgeStyle=orthogonalEdgeStyle;rounded=0;orthogonalLoop=1;jettySize=auto;html=1;" edge="1" parent="1" source="rCZeh3oalFm6eIV2nrRH-4" target="rCZeh3oalFm6eIV2nrRH-7">
          <mxGeometry relative="1" as="geometry" />
        </mxCell>
        <mxCell id="rCZeh3oalFm6eIV2nrRH-4" value="a,b" style="whiteSpace=wrap;html=1;shape=parallelogram;perimeter=parallelogramPerimeter;fixedSize=1;" vertex="1" parent="1">
          <mxGeometry x="200" y="230" width="80" height="80" as="geometry" />
        </mxCell>
        <mxCell id="rCZeh3oalFm6eIV2nrRH-10" value="" style="edgeStyle=orthogonalEdgeStyle;rounded=0;orthogonalLoop=1;jettySize=auto;html=1;" edge="1" parent="1" source="rCZeh3oalFm6eIV2nrRH-7" target="rCZeh3oalFm6eIV2nrRH-9">
          <mxGeometry relative="1" as="geometry" />
        </mxCell>
        <mxCell id="rCZeh3oalFm6eIV2nrRH-17" value="true" style="edgeLabel;html=1;align=center;verticalAlign=middle;resizable=0;points=[];" vertex="1" connectable="0" parent="rCZeh3oalFm6eIV2nrRH-10">
          <mxGeometry x="-0.4" y="-1" relative="1" as="geometry">
            <mxPoint as="offset" />
          </mxGeometry>
        </mxCell>
        <mxCell id="rCZeh3oalFm6eIV2nrRH-25" value="" style="edgeStyle=orthogonalEdgeStyle;rounded=0;orthogonalLoop=1;jettySize=auto;html=1;" edge="1" parent="1" source="rCZeh3oalFm6eIV2nrRH-7" target="rCZeh3oalFm6eIV2nrRH-18">
          <mxGeometry relative="1" as="geometry" />
        </mxCell>
        <mxCell id="rCZeh3oalFm6eIV2nrRH-26" value="false" style="edgeLabel;html=1;align=center;verticalAlign=middle;resizable=0;points=[];" vertex="1" connectable="0" parent="rCZeh3oalFm6eIV2nrRH-25">
          <mxGeometry x="0.0125" y="1" relative="1" as="geometry">
            <mxPoint as="offset" />
          </mxGeometry>
        </mxCell>
        <mxCell id="rCZeh3oalFm6eIV2nrRH-7" value="a=b" style="rhombus;whiteSpace=wrap;html=1;" vertex="1" parent="1">
          <mxGeometry x="200" y="510" width="80" height="80" as="geometry" />
        </mxCell>
        <mxCell id="rCZeh3oalFm6eIV2nrRH-12" value="" style="edgeStyle=orthogonalEdgeStyle;rounded=0;orthogonalLoop=1;jettySize=auto;html=1;" edge="1" parent="1" source="rCZeh3oalFm6eIV2nrRH-9" target="rCZeh3oalFm6eIV2nrRH-11">
          <mxGeometry relative="1" as="geometry" />
        </mxCell>
        <mxCell id="rCZeh3oalFm6eIV2nrRH-9" value="ưcln=a" style="whiteSpace=wrap;html=1;" vertex="1" parent="1">
          <mxGeometry x="340" y="520" width="120" height="60" as="geometry" />
        </mxCell>
        <mxCell id="rCZeh3oalFm6eIV2nrRH-14" value="" style="edgeStyle=orthogonalEdgeStyle;rounded=0;orthogonalLoop=1;jettySize=auto;html=1;" edge="1" parent="1" source="rCZeh3oalFm6eIV2nrRH-11" target="rCZeh3oalFm6eIV2nrRH-13">
          <mxGeometry relative="1" as="geometry" />
        </mxCell>
        <mxCell id="rCZeh3oalFm6eIV2nrRH-11" value="bcnn=(c*d)/ưcln" style="whiteSpace=wrap;html=1;" vertex="1" parent="1">
          <mxGeometry x="540" y="520" width="120" height="60" as="geometry" />
        </mxCell>
        <mxCell id="rCZeh3oalFm6eIV2nrRH-16" value="" style="edgeStyle=orthogonalEdgeStyle;rounded=0;orthogonalLoop=1;jettySize=auto;html=1;" edge="1" parent="1" source="rCZeh3oalFm6eIV2nrRH-13" target="rCZeh3oalFm6eIV2nrRH-15">
          <mxGeometry relative="1" as="geometry" />
        </mxCell>
        <mxCell id="rCZeh3oalFm6eIV2nrRH-13" value="bcnn" style="rhombus;whiteSpace=wrap;html=1;" vertex="1" parent="1">
          <mxGeometry x="560" y="650" width="80" height="80" as="geometry" />
        </mxCell>
        <mxCell id="rCZeh3oalFm6eIV2nrRH-15" value="end" style="ellipse;whiteSpace=wrap;html=1;" vertex="1" parent="1">
          <mxGeometry x="540" y="780" width="120" height="80" as="geometry" />
        </mxCell>
        <mxCell id="rCZeh3oalFm6eIV2nrRH-22" value="" style="edgeStyle=orthogonalEdgeStyle;rounded=0;orthogonalLoop=1;jettySize=auto;html=1;" edge="1" parent="1" source="rCZeh3oalFm6eIV2nrRH-18" target="rCZeh3oalFm6eIV2nrRH-21">
          <mxGeometry relative="1" as="geometry" />
        </mxCell>
        <mxCell id="rCZeh3oalFm6eIV2nrRH-27" value="true" style="edgeLabel;html=1;align=center;verticalAlign=middle;resizable=0;points=[];" vertex="1" connectable="0" parent="rCZeh3oalFm6eIV2nrRH-22">
          <mxGeometry x="-0.125" y="3" relative="1" as="geometry">
            <mxPoint y="1" as="offset" />
          </mxGeometry>
        </mxCell>
        <mxCell id="rCZeh3oalFm6eIV2nrRH-29" value="" style="edgeStyle=orthogonalEdgeStyle;rounded=0;orthogonalLoop=1;jettySize=auto;html=1;" edge="1" parent="1" source="rCZeh3oalFm6eIV2nrRH-18" target="rCZeh3oalFm6eIV2nrRH-28">
          <mxGeometry relative="1" as="geometry" />
        </mxCell>
        <mxCell id="rCZeh3oalFm6eIV2nrRH-30" value="false" style="edgeLabel;html=1;align=center;verticalAlign=middle;resizable=0;points=[];" vertex="1" connectable="0" parent="rCZeh3oalFm6eIV2nrRH-29">
          <mxGeometry x="-0.2625" y="1" relative="1" as="geometry">
            <mxPoint as="offset" />
          </mxGeometry>
        </mxCell>
        <mxCell id="rCZeh3oalFm6eIV2nrRH-18" value="a&amp;gt;b" style="rhombus;whiteSpace=wrap;html=1;" vertex="1" parent="1">
          <mxGeometry x="200" y="670" width="80" height="80" as="geometry" />
        </mxCell>
        <mxCell id="rCZeh3oalFm6eIV2nrRH-33" style="edgeStyle=orthogonalEdgeStyle;rounded=0;orthogonalLoop=1;jettySize=auto;html=1;entryX=0.5;entryY=0;entryDx=0;entryDy=0;exitX=0.5;exitY=1;exitDx=0;exitDy=0;" edge="1" parent="1" source="rCZeh3oalFm6eIV2nrRH-21" target="rCZeh3oalFm6eIV2nrRH-7">
          <mxGeometry relative="1" as="geometry">
            <Array as="points">
              <mxPoint x="400" y="920" />
              <mxPoint x="140" y="920" />
              <mxPoint x="140" y="500" />
              <mxPoint x="240" y="500" />
            </Array>
          </mxGeometry>
        </mxCell>
        <mxCell id="rCZeh3oalFm6eIV2nrRH-21" value="a=a-b" style="rhombus;whiteSpace=wrap;html=1;" vertex="1" parent="1">
          <mxGeometry x="360" y="670" width="80" height="80" as="geometry" />
        </mxCell>
        <mxCell id="rCZeh3oalFm6eIV2nrRH-32" style="edgeStyle=orthogonalEdgeStyle;rounded=0;orthogonalLoop=1;jettySize=auto;html=1;exitX=0;exitY=0.5;exitDx=0;exitDy=0;entryX=0.5;entryY=0;entryDx=0;entryDy=0;" edge="1" parent="1" source="rCZeh3oalFm6eIV2nrRH-28" target="rCZeh3oalFm6eIV2nrRH-7">
          <mxGeometry relative="1" as="geometry">
            <Array as="points">
              <mxPoint x="180" y="870" />
              <mxPoint x="180" y="490" />
              <mxPoint x="240" y="490" />
            </Array>
          </mxGeometry>
        </mxCell>
        <mxCell id="rCZeh3oalFm6eIV2nrRH-28" value="b=b-a" style="rhombus;whiteSpace=wrap;html=1;" vertex="1" parent="1">
          <mxGeometry x="200" y="830" width="80" height="80" as="geometry" />
        </mxCell>
        <mxCell id="X2r47MN17fR7FYV2hmCC-1" value="c=a,d=b" style="rounded=0;whiteSpace=wrap;html=1;" vertex="1" parent="1">
          <mxGeometry x="180" y="370" width="120" height="60" as="geometry" />
        </mxCell>
      </root>
    </mxGraphModel>
  </diagram>
  <diagram id="qAcsCreMKbKXcvOyikfa" name="bai 4">
    <mxGraphModel dx="946" dy="605" grid="1" gridSize="10" guides="1" tooltips="1" connect="1" arrows="1" fold="1" page="1" pageScale="1" pageWidth="850" pageHeight="1100" math="0" shadow="0">
      <root>
        <mxCell id="0" />
        <mxCell id="1" parent="0" />
        <mxCell id="R-jSQJ_7s6jSAYVVCoH7-1" style="edgeStyle=orthogonalEdgeStyle;rounded=0;orthogonalLoop=1;jettySize=auto;html=1;entryX=0.5;entryY=0;entryDx=0;entryDy=0;" edge="1" parent="1" source="R-jSQJ_7s6jSAYVVCoH7-2" target="R-jSQJ_7s6jSAYVVCoH7-4">
          <mxGeometry relative="1" as="geometry" />
        </mxCell>
        <mxCell id="R-jSQJ_7s6jSAYVVCoH7-2" value="start" style="ellipse;whiteSpace=wrap;html=1;" vertex="1" parent="1">
          <mxGeometry x="240" y="150" width="120" height="80" as="geometry" />
        </mxCell>
        <mxCell id="R-jSQJ_7s6jSAYVVCoH7-3" style="edgeStyle=orthogonalEdgeStyle;rounded=0;orthogonalLoop=1;jettySize=auto;html=1;exitX=0.5;exitY=1;exitDx=0;exitDy=0;" edge="1" parent="1" source="R-jSQJ_7s6jSAYVVCoH7-4" target="R-jSQJ_7s6jSAYVVCoH7-6">
          <mxGeometry relative="1" as="geometry" />
        </mxCell>
        <mxCell id="R-jSQJ_7s6jSAYVVCoH7-4" value="a,b,c,x,x1,x2,delta" style="rounded=0;whiteSpace=wrap;html=1;" vertex="1" parent="1">
          <mxGeometry x="240" y="280" width="120" height="60" as="geometry" />
        </mxCell>
        <mxCell id="R-jSQJ_7s6jSAYVVCoH7-5" style="edgeStyle=orthogonalEdgeStyle;rounded=0;orthogonalLoop=1;jettySize=auto;html=1;entryX=0.5;entryY=0;entryDx=0;entryDy=0;" edge="1" parent="1" source="R-jSQJ_7s6jSAYVVCoH7-6" target="R-jSQJ_7s6jSAYVVCoH7-11">
          <mxGeometry relative="1" as="geometry" />
        </mxCell>
        <mxCell id="R-jSQJ_7s6jSAYVVCoH7-6" value="a,b,c" style="shape=parallelogram;perimeter=parallelogramPerimeter;whiteSpace=wrap;html=1;fixedSize=1;" vertex="1" parent="1">
          <mxGeometry x="240" y="410" width="120" height="60" as="geometry" />
        </mxCell>
        <mxCell id="R-jSQJ_7s6jSAYVVCoH7-27" style="edgeStyle=orthogonalEdgeStyle;rounded=0;orthogonalLoop=1;jettySize=auto;html=1;" edge="1" parent="1" source="R-jSQJ_7s6jSAYVVCoH7-11" target="R-jSQJ_7s6jSAYVVCoH7-26">
          <mxGeometry relative="1" as="geometry" />
        </mxCell>
        <mxCell id="R-jSQJ_7s6jSAYVVCoH7-28" value="true" style="edgeLabel;html=1;align=center;verticalAlign=middle;resizable=0;points=[];" vertex="1" connectable="0" parent="R-jSQJ_7s6jSAYVVCoH7-27">
          <mxGeometry x="0.04" relative="1" as="geometry">
            <mxPoint as="offset" />
          </mxGeometry>
        </mxCell>
        <mxCell id="R-jSQJ_7s6jSAYVVCoH7-49" style="edgeStyle=orthogonalEdgeStyle;rounded=0;orthogonalLoop=1;jettySize=auto;html=1;entryX=0.5;entryY=0;entryDx=0;entryDy=0;" edge="1" parent="1" source="R-jSQJ_7s6jSAYVVCoH7-11" target="R-jSQJ_7s6jSAYVVCoH7-48">
          <mxGeometry relative="1" as="geometry" />
        </mxCell>
        <mxCell id="R-jSQJ_7s6jSAYVVCoH7-50" value="false" style="edgeLabel;html=1;align=center;verticalAlign=middle;resizable=0;points=[];" vertex="1" connectable="0" parent="R-jSQJ_7s6jSAYVVCoH7-49">
          <mxGeometry y="3" relative="1" as="geometry">
            <mxPoint as="offset" />
          </mxGeometry>
        </mxCell>
        <mxCell id="R-jSQJ_7s6jSAYVVCoH7-11" value="a=0" style="rhombus;whiteSpace=wrap;html=1;" vertex="1" parent="1">
          <mxGeometry x="260" y="530" width="80" height="80" as="geometry" />
        </mxCell>
        <mxCell id="R-jSQJ_7s6jSAYVVCoH7-30" style="edgeStyle=orthogonalEdgeStyle;rounded=0;orthogonalLoop=1;jettySize=auto;html=1;entryX=0;entryY=0.5;entryDx=0;entryDy=0;" edge="1" parent="1" source="R-jSQJ_7s6jSAYVVCoH7-26" target="R-jSQJ_7s6jSAYVVCoH7-29">
          <mxGeometry relative="1" as="geometry" />
        </mxCell>
        <mxCell id="R-jSQJ_7s6jSAYVVCoH7-31" value="true" style="edgeLabel;html=1;align=center;verticalAlign=middle;resizable=0;points=[];" vertex="1" connectable="0" parent="R-jSQJ_7s6jSAYVVCoH7-30">
          <mxGeometry x="-0.1818" y="1" relative="1" as="geometry">
            <mxPoint as="offset" />
          </mxGeometry>
        </mxCell>
        <mxCell id="R-jSQJ_7s6jSAYVVCoH7-36" style="edgeStyle=orthogonalEdgeStyle;rounded=0;orthogonalLoop=1;jettySize=auto;html=1;entryX=0;entryY=0.5;entryDx=0;entryDy=0;" edge="1" parent="1" source="R-jSQJ_7s6jSAYVVCoH7-26" target="R-jSQJ_7s6jSAYVVCoH7-32">
          <mxGeometry relative="1" as="geometry">
            <Array as="points">
              <mxPoint x="480" y="700" />
            </Array>
          </mxGeometry>
        </mxCell>
        <mxCell id="R-jSQJ_7s6jSAYVVCoH7-37" value="false" style="edgeLabel;html=1;align=center;verticalAlign=middle;resizable=0;points=[];" vertex="1" connectable="0" parent="R-jSQJ_7s6jSAYVVCoH7-36">
          <mxGeometry x="0.2917" y="3" relative="1" as="geometry">
            <mxPoint y="1" as="offset" />
          </mxGeometry>
        </mxCell>
        <mxCell id="R-jSQJ_7s6jSAYVVCoH7-26" value="b=0" style="rhombus;whiteSpace=wrap;html=1;" vertex="1" parent="1">
          <mxGeometry x="440" y="530" width="80" height="80" as="geometry" />
        </mxCell>
        <mxCell id="8T-l4DUPenrf2QWVsqth-19" style="edgeStyle=orthogonalEdgeStyle;rounded=0;orthogonalLoop=1;jettySize=auto;html=1;entryX=0.5;entryY=0;entryDx=0;entryDy=0;" edge="1" parent="1" source="R-jSQJ_7s6jSAYVVCoH7-29" target="8T-l4DUPenrf2QWVsqth-18">
          <mxGeometry relative="1" as="geometry" />
        </mxCell>
        <mxCell id="R-jSQJ_7s6jSAYVVCoH7-29" value="x= vo nghiem" style="rounded=0;whiteSpace=wrap;html=1;" vertex="1" parent="1">
          <mxGeometry x="630" y="540" width="120" height="60" as="geometry" />
        </mxCell>
        <mxCell id="R-jSQJ_7s6jSAYVVCoH7-32" value="x=-c/b" style="rounded=0;whiteSpace=wrap;html=1;" vertex="1" parent="1">
          <mxGeometry x="630" y="670" width="120" height="60" as="geometry" />
        </mxCell>
        <mxCell id="8T-l4DUPenrf2QWVsqth-2" style="edgeStyle=orthogonalEdgeStyle;rounded=0;orthogonalLoop=1;jettySize=auto;html=1;entryX=0;entryY=0.5;entryDx=0;entryDy=0;" edge="1" parent="1" source="R-jSQJ_7s6jSAYVVCoH7-48" target="8T-l4DUPenrf2QWVsqth-1">
          <mxGeometry relative="1" as="geometry" />
        </mxCell>
        <mxCell id="R-jSQJ_7s6jSAYVVCoH7-48" value="delta=b*b-4*a*c" style="rounded=0;whiteSpace=wrap;html=1;" vertex="1" parent="1">
          <mxGeometry x="240" y="770" width="120" height="60" as="geometry" />
        </mxCell>
        <mxCell id="8T-l4DUPenrf2QWVsqth-4" style="edgeStyle=orthogonalEdgeStyle;rounded=0;orthogonalLoop=1;jettySize=auto;html=1;entryX=0;entryY=0.5;entryDx=0;entryDy=0;" edge="1" parent="1" source="8T-l4DUPenrf2QWVsqth-1" target="8T-l4DUPenrf2QWVsqth-3">
          <mxGeometry relative="1" as="geometry" />
        </mxCell>
        <mxCell id="8T-l4DUPenrf2QWVsqth-5" value="true" style="edgeLabel;html=1;align=center;verticalAlign=middle;resizable=0;points=[];" vertex="1" connectable="0" parent="8T-l4DUPenrf2QWVsqth-4">
          <mxGeometry x="-0.08" y="2" relative="1" as="geometry">
            <mxPoint as="offset" />
          </mxGeometry>
        </mxCell>
        <mxCell id="8T-l4DUPenrf2QWVsqth-10" style="edgeStyle=orthogonalEdgeStyle;rounded=0;orthogonalLoop=1;jettySize=auto;html=1;" edge="1" parent="1" source="8T-l4DUPenrf2QWVsqth-1" target="8T-l4DUPenrf2QWVsqth-6">
          <mxGeometry relative="1" as="geometry" />
        </mxCell>
        <mxCell id="8T-l4DUPenrf2QWVsqth-11" value="Text" style="edgeLabel;html=1;align=center;verticalAlign=middle;resizable=0;points=[];" vertex="1" connectable="0" parent="8T-l4DUPenrf2QWVsqth-10">
          <mxGeometry x="-0.1333" relative="1" as="geometry">
            <mxPoint as="offset" />
          </mxGeometry>
        </mxCell>
        <mxCell id="8T-l4DUPenrf2QWVsqth-12" value="false" style="edgeLabel;html=1;align=center;verticalAlign=middle;resizable=0;points=[];" vertex="1" connectable="0" parent="8T-l4DUPenrf2QWVsqth-10">
          <mxGeometry x="-0.2" y="3" relative="1" as="geometry">
            <mxPoint as="offset" />
          </mxGeometry>
        </mxCell>
        <mxCell id="8T-l4DUPenrf2QWVsqth-1" value="delta&amp;lt;0" style="rhombus;whiteSpace=wrap;html=1;" vertex="1" parent="1">
          <mxGeometry x="440" y="760" width="80" height="80" as="geometry" />
        </mxCell>
        <mxCell id="8T-l4DUPenrf2QWVsqth-21" style="edgeStyle=orthogonalEdgeStyle;rounded=0;orthogonalLoop=1;jettySize=auto;html=1;entryX=0;entryY=0.5;entryDx=0;entryDy=0;" edge="1" parent="1" source="8T-l4DUPenrf2QWVsqth-3" target="8T-l4DUPenrf2QWVsqth-18">
          <mxGeometry relative="1" as="geometry" />
        </mxCell>
        <mxCell id="8T-l4DUPenrf2QWVsqth-3" value="x= vo nghiem" style="rounded=0;whiteSpace=wrap;html=1;" vertex="1" parent="1">
          <mxGeometry x="620" y="770" width="120" height="60" as="geometry" />
        </mxCell>
        <mxCell id="8T-l4DUPenrf2QWVsqth-8" style="edgeStyle=orthogonalEdgeStyle;rounded=0;orthogonalLoop=1;jettySize=auto;html=1;exitX=1;exitY=0.5;exitDx=0;exitDy=0;" edge="1" parent="1" source="8T-l4DUPenrf2QWVsqth-6" target="8T-l4DUPenrf2QWVsqth-7">
          <mxGeometry relative="1" as="geometry" />
        </mxCell>
        <mxCell id="8T-l4DUPenrf2QWVsqth-9" value="true" style="edgeLabel;html=1;align=center;verticalAlign=middle;resizable=0;points=[];" vertex="1" connectable="0" parent="8T-l4DUPenrf2QWVsqth-8">
          <mxGeometry y="-1" relative="1" as="geometry">
            <mxPoint as="offset" />
          </mxGeometry>
        </mxCell>
        <mxCell id="8T-l4DUPenrf2QWVsqth-6" value="delta=0" style="rhombus;whiteSpace=wrap;html=1;" vertex="1" parent="1">
          <mxGeometry x="440" y="900" width="80" height="80" as="geometry" />
        </mxCell>
        <mxCell id="8T-l4DUPenrf2QWVsqth-7" value="x1=x2=-b/2*a" style="rounded=0;whiteSpace=wrap;html=1;" vertex="1" parent="1">
          <mxGeometry x="610" y="910" width="120" height="60" as="geometry" />
        </mxCell>
        <mxCell id="8T-l4DUPenrf2QWVsqth-17" style="edgeStyle=orthogonalEdgeStyle;rounded=0;orthogonalLoop=1;jettySize=auto;html=1;entryX=0;entryY=0.5;entryDx=0;entryDy=0;" edge="1" parent="1" source="8T-l4DUPenrf2QWVsqth-13" target="8T-l4DUPenrf2QWVsqth-16">
          <mxGeometry relative="1" as="geometry" />
        </mxCell>
        <mxCell id="8T-l4DUPenrf2QWVsqth-13" value="delta&amp;gt;0" style="rhombus;whiteSpace=wrap;html=1;" vertex="1" parent="1">
          <mxGeometry x="440" y="1050" width="80" height="80" as="geometry" />
        </mxCell>
        <mxCell id="8T-l4DUPenrf2QWVsqth-14" style="edgeStyle=orthogonalEdgeStyle;rounded=0;orthogonalLoop=1;jettySize=auto;html=1;entryX=0.5;entryY=0;entryDx=0;entryDy=0;" edge="1" parent="1" source="8T-l4DUPenrf2QWVsqth-6" target="8T-l4DUPenrf2QWVsqth-13">
          <mxGeometry relative="1" as="geometry" />
        </mxCell>
        <mxCell id="8T-l4DUPenrf2QWVsqth-15" value="false" style="edgeLabel;html=1;align=center;verticalAlign=middle;resizable=0;points=[];" vertex="1" connectable="0" parent="8T-l4DUPenrf2QWVsqth-14">
          <mxGeometry x="-0.1286" y="2" relative="1" as="geometry">
            <mxPoint y="1" as="offset" />
          </mxGeometry>
        </mxCell>
        <mxCell id="8T-l4DUPenrf2QWVsqth-28" style="edgeStyle=orthogonalEdgeStyle;rounded=0;orthogonalLoop=1;jettySize=auto;html=1;exitX=1;exitY=0.5;exitDx=0;exitDy=0;entryX=0.5;entryY=1;entryDx=0;entryDy=0;" edge="1" parent="1" source="8T-l4DUPenrf2QWVsqth-16" target="8T-l4DUPenrf2QWVsqth-26">
          <mxGeometry relative="1" as="geometry" />
        </mxCell>
        <mxCell id="8T-l4DUPenrf2QWVsqth-16" value="x1=(-b+sqrt(delta))/2*a&lt;br&gt;x2=(-b-sqrt(delta))/2*a" style="rounded=0;whiteSpace=wrap;html=1;" vertex="1" parent="1">
          <mxGeometry x="610" y="1060" width="130" height="60" as="geometry" />
        </mxCell>
        <mxCell id="8T-l4DUPenrf2QWVsqth-25" style="edgeStyle=orthogonalEdgeStyle;rounded=0;orthogonalLoop=1;jettySize=auto;html=1;entryX=0;entryY=0.5;entryDx=0;entryDy=0;" edge="1" parent="1" source="8T-l4DUPenrf2QWVsqth-18" target="8T-l4DUPenrf2QWVsqth-24">
          <mxGeometry relative="1" as="geometry" />
        </mxCell>
        <mxCell id="8T-l4DUPenrf2QWVsqth-18" value="x" style="rounded=0;whiteSpace=wrap;html=1;shape=parallelogram;perimeter=parallelogramPerimeter;fixedSize=1;" vertex="1" parent="1">
          <mxGeometry x="930" y="770" width="120" height="60" as="geometry" />
        </mxCell>
        <mxCell id="8T-l4DUPenrf2QWVsqth-20" style="edgeStyle=orthogonalEdgeStyle;rounded=0;orthogonalLoop=1;jettySize=auto;html=1;exitX=1;exitY=0.5;exitDx=0;exitDy=0;entryX=0.171;entryY=-0.083;entryDx=0;entryDy=0;entryPerimeter=0;" edge="1" parent="1" source="R-jSQJ_7s6jSAYVVCoH7-32" target="8T-l4DUPenrf2QWVsqth-18">
          <mxGeometry relative="1" as="geometry" />
        </mxCell>
        <mxCell id="8T-l4DUPenrf2QWVsqth-24" value="end" style="ellipse;whiteSpace=wrap;html=1;" vertex="1" parent="1">
          <mxGeometry x="1120" y="760" width="120" height="80" as="geometry" />
        </mxCell>
        <mxCell id="8T-l4DUPenrf2QWVsqth-30" style="edgeStyle=orthogonalEdgeStyle;rounded=0;orthogonalLoop=1;jettySize=auto;html=1;entryX=0.5;entryY=1;entryDx=0;entryDy=0;" edge="1" parent="1" source="8T-l4DUPenrf2QWVsqth-26" target="8T-l4DUPenrf2QWVsqth-24">
          <mxGeometry relative="1" as="geometry" />
        </mxCell>
        <mxCell id="8T-l4DUPenrf2QWVsqth-26" value="x1 , x2" style="shape=parallelogram;perimeter=parallelogramPerimeter;whiteSpace=wrap;html=1;fixedSize=1;" vertex="1" parent="1">
          <mxGeometry x="920" y="900" width="120" height="60" as="geometry" />
        </mxCell>
        <mxCell id="8T-l4DUPenrf2QWVsqth-29" style="edgeStyle=orthogonalEdgeStyle;rounded=0;orthogonalLoop=1;jettySize=auto;html=1;exitX=1;exitY=0.5;exitDx=0;exitDy=0;" edge="1" parent="1" source="8T-l4DUPenrf2QWVsqth-7">
          <mxGeometry relative="1" as="geometry">
            <mxPoint x="930" y="940" as="targetPoint" />
          </mxGeometry>
        </mxCell>
      </root>
    </mxGraphModel>
  </diagram>
  <diagram id="IJYN5XmtfsC7jjnAq9Qh" name="bai 5">
    <mxGraphModel dx="1351" dy="864" grid="1" gridSize="10" guides="1" tooltips="1" connect="1" arrows="1" fold="1" page="1" pageScale="1" pageWidth="850" pageHeight="1100" math="0" shadow="0">
      <root>
        <mxCell id="0" />
        <mxCell id="1" parent="0" />
        <mxCell id="cmnuZ46DkU7-QbF8hwWJ-3" style="edgeStyle=orthogonalEdgeStyle;rounded=0;orthogonalLoop=1;jettySize=auto;html=1;" edge="1" parent="1" source="cmnuZ46DkU7-QbF8hwWJ-1" target="cmnuZ46DkU7-QbF8hwWJ-2">
          <mxGeometry relative="1" as="geometry" />
        </mxCell>
        <mxCell id="cmnuZ46DkU7-QbF8hwWJ-1" value="start" style="ellipse;whiteSpace=wrap;html=1;" vertex="1" parent="1">
          <mxGeometry x="310" y="170" width="120" height="80" as="geometry" />
        </mxCell>
        <mxCell id="pn1AjuIR3DTiN83CMnaR-1" style="edgeStyle=orthogonalEdgeStyle;rounded=0;orthogonalLoop=1;jettySize=auto;html=1;entryX=0.5;entryY=0;entryDx=0;entryDy=0;" edge="1" parent="1" source="cmnuZ46DkU7-QbF8hwWJ-2" target="cmnuZ46DkU7-QbF8hwWJ-4">
          <mxGeometry relative="1" as="geometry" />
        </mxCell>
        <mxCell id="cmnuZ46DkU7-QbF8hwWJ-2" value="a,b, tong, hieu,tich,thuong" style="shape=label;whiteSpace=wrap;html=1;fixedSize=1;rounded=0;" vertex="1" parent="1">
          <mxGeometry x="270" y="320" width="200" height="60" as="geometry" />
        </mxCell>
        <mxCell id="lTDcd_kRi7GTukdK4PDP-5" style="edgeStyle=orthogonalEdgeStyle;rounded=0;orthogonalLoop=1;jettySize=auto;html=1;entryX=0;entryY=0.5;entryDx=0;entryDy=0;" edge="1" parent="1" source="cmnuZ46DkU7-QbF8hwWJ-4" target="lTDcd_kRi7GTukdK4PDP-1">
          <mxGeometry relative="1" as="geometry" />
        </mxCell>
        <mxCell id="cmnuZ46DkU7-QbF8hwWJ-4" value="a,b" style="rounded=0;whiteSpace=wrap;html=1;shape=parallelogram;perimeter=parallelogramPerimeter;fixedSize=1;" vertex="1" parent="1">
          <mxGeometry x="310" y="450" width="120" height="60" as="geometry" />
        </mxCell>
        <mxCell id="lTDcd_kRi7GTukdK4PDP-6" value="" style="edgeStyle=orthogonalEdgeStyle;rounded=0;orthogonalLoop=1;jettySize=auto;html=1;" edge="1" parent="1" source="lTDcd_kRi7GTukdK4PDP-1" target="lTDcd_kRi7GTukdK4PDP-2">
          <mxGeometry relative="1" as="geometry" />
        </mxCell>
        <mxCell id="lTDcd_kRi7GTukdK4PDP-1" value="tong= a+b" style="rounded=0;whiteSpace=wrap;html=1;" vertex="1" parent="1">
          <mxGeometry x="520" y="450" width="120" height="60" as="geometry" />
        </mxCell>
        <mxCell id="lTDcd_kRi7GTukdK4PDP-7" value="" style="edgeStyle=orthogonalEdgeStyle;rounded=0;orthogonalLoop=1;jettySize=auto;html=1;" edge="1" parent="1" source="lTDcd_kRi7GTukdK4PDP-2" target="lTDcd_kRi7GTukdK4PDP-3">
          <mxGeometry relative="1" as="geometry" />
        </mxCell>
        <mxCell id="lTDcd_kRi7GTukdK4PDP-2" value="hieu=a-b" style="rounded=0;whiteSpace=wrap;html=1;" vertex="1" parent="1">
          <mxGeometry x="750" y="450" width="120" height="60" as="geometry" />
        </mxCell>
        <mxCell id="lTDcd_kRi7GTukdK4PDP-8" value="" style="edgeStyle=orthogonalEdgeStyle;rounded=0;orthogonalLoop=1;jettySize=auto;html=1;" edge="1" parent="1" source="lTDcd_kRi7GTukdK4PDP-3" target="lTDcd_kRi7GTukdK4PDP-4">
          <mxGeometry relative="1" as="geometry" />
        </mxCell>
        <mxCell id="lTDcd_kRi7GTukdK4PDP-3" value="tich=a*b" style="rounded=0;whiteSpace=wrap;html=1;" vertex="1" parent="1">
          <mxGeometry x="750" y="630" width="120" height="60" as="geometry" />
        </mxCell>
        <mxCell id="45o-Y8PaeP1CZxXQJD73-3" value="" style="edgeStyle=orthogonalEdgeStyle;rounded=0;orthogonalLoop=1;jettySize=auto;html=1;" edge="1" parent="1" source="lTDcd_kRi7GTukdK4PDP-4" target="45o-Y8PaeP1CZxXQJD73-2">
          <mxGeometry relative="1" as="geometry" />
        </mxCell>
        <mxCell id="lTDcd_kRi7GTukdK4PDP-4" value="thuong=a/b" style="rounded=0;whiteSpace=wrap;html=1;" vertex="1" parent="1">
          <mxGeometry x="520" y="630" width="120" height="60" as="geometry" />
        </mxCell>
        <mxCell id="8ZH9Q_I8BjefNhpMYOfG-2" value="" style="edgeStyle=orthogonalEdgeStyle;rounded=0;orthogonalLoop=1;jettySize=auto;html=1;" edge="1" parent="1" source="45o-Y8PaeP1CZxXQJD73-2" target="8ZH9Q_I8BjefNhpMYOfG-1">
          <mxGeometry relative="1" as="geometry" />
        </mxCell>
        <mxCell id="45o-Y8PaeP1CZxXQJD73-2" value="a=b=tong&lt;br&gt;a-b=hieu&lt;br&gt;a*b=tich&lt;br&gt;a/b=thuong" style="shape=parallelogram;perimeter=parallelogramPerimeter;whiteSpace=wrap;html=1;fixedSize=1;rounded=0;" vertex="1" parent="1">
          <mxGeometry x="260" y="620" width="170" height="80" as="geometry" />
        </mxCell>
        <mxCell id="8ZH9Q_I8BjefNhpMYOfG-1" value="end" style="whiteSpace=wrap;html=1;rounded=0;shape=ellipse;perimeter=ellipsePerimeter;" vertex="1" parent="1">
          <mxGeometry x="282.5" y="780" width="125" height="80" as="geometry" />
        </mxCell>
      </root>
    </mxGraphModel>
  </diagram>
  <diagram id="lrgHNCfNra1AQbOgy71V" name="bai 6">
    <mxGraphModel dx="1113" dy="712" grid="1" gridSize="10" guides="1" tooltips="1" connect="1" arrows="1" fold="1" page="1" pageScale="1" pageWidth="850" pageHeight="1100" math="0" shadow="0">
      <root>
        <mxCell id="0" />
        <mxCell id="1" parent="0" />
        <mxCell id="ekodRQTD9UOasWnFglQi-3" style="edgeStyle=orthogonalEdgeStyle;rounded=0;orthogonalLoop=1;jettySize=auto;html=1;entryX=0.5;entryY=0;entryDx=0;entryDy=0;" edge="1" parent="1" source="ekodRQTD9UOasWnFglQi-1" target="ekodRQTD9UOasWnFglQi-2">
          <mxGeometry relative="1" as="geometry" />
        </mxCell>
        <mxCell id="ekodRQTD9UOasWnFglQi-1" value="start" style="ellipse;whiteSpace=wrap;html=1;" vertex="1" parent="1">
          <mxGeometry x="220" y="140" width="120" height="80" as="geometry" />
        </mxCell>
        <mxCell id="qkkSo4X1uEeQox8-hG8_-11" value="" style="edgeStyle=orthogonalEdgeStyle;rounded=0;orthogonalLoop=1;jettySize=auto;html=1;" edge="1" parent="1" source="ekodRQTD9UOasWnFglQi-2" target="qkkSo4X1uEeQox8-hG8_-9">
          <mxGeometry relative="1" as="geometry" />
        </mxCell>
        <mxCell id="ekodRQTD9UOasWnFglQi-2" value="a,b,c,n,m" style="rounded=0;whiteSpace=wrap;html=1;" vertex="1" parent="1">
          <mxGeometry x="220" y="260" width="120" height="60" as="geometry" />
        </mxCell>
        <mxCell id="qkkSo4X1uEeQox8-hG8_-13" value="" style="edgeStyle=orthogonalEdgeStyle;rounded=0;orthogonalLoop=1;jettySize=auto;html=1;" edge="1" parent="1" source="qkkSo4X1uEeQox8-hG8_-9" target="qkkSo4X1uEeQox8-hG8_-12">
          <mxGeometry relative="1" as="geometry" />
        </mxCell>
        <mxCell id="qkkSo4X1uEeQox8-hG8_-9" value="n" style="shape=parallelogram;perimeter=parallelogramPerimeter;whiteSpace=wrap;html=1;fixedSize=1;" vertex="1" parent="1">
          <mxGeometry x="220" y="360" width="120" height="60" as="geometry" />
        </mxCell>
        <mxCell id="qkkSo4X1uEeQox8-hG8_-15" value="" style="edgeStyle=orthogonalEdgeStyle;rounded=0;orthogonalLoop=1;jettySize=auto;html=1;" edge="1" parent="1" source="qkkSo4X1uEeQox8-hG8_-12" target="qkkSo4X1uEeQox8-hG8_-14">
          <mxGeometry relative="1" as="geometry" />
        </mxCell>
        <mxCell id="qkkSo4X1uEeQox8-hG8_-12" value="n%10=c&lt;br&gt;n=n/10" style="rounded=0;whiteSpace=wrap;html=1;" vertex="1" parent="1">
          <mxGeometry x="400" y="360" width="120" height="60" as="geometry" />
        </mxCell>
        <mxCell id="qkkSo4X1uEeQox8-hG8_-17" value="" style="edgeStyle=orthogonalEdgeStyle;rounded=0;orthogonalLoop=1;jettySize=auto;html=1;" edge="1" parent="1" source="qkkSo4X1uEeQox8-hG8_-14" target="qkkSo4X1uEeQox8-hG8_-16">
          <mxGeometry relative="1" as="geometry" />
        </mxCell>
        <mxCell id="qkkSo4X1uEeQox8-hG8_-14" value="n%10=b&lt;br&gt;n=n/10" style="whiteSpace=wrap;html=1;rounded=0;" vertex="1" parent="1">
          <mxGeometry x="400" y="460" width="120" height="60" as="geometry" />
        </mxCell>
        <mxCell id="qkkSo4X1uEeQox8-hG8_-21" value="" style="edgeStyle=orthogonalEdgeStyle;rounded=0;orthogonalLoop=1;jettySize=auto;html=1;" edge="1" parent="1" source="qkkSo4X1uEeQox8-hG8_-16" target="qkkSo4X1uEeQox8-hG8_-18">
          <mxGeometry relative="1" as="geometry" />
        </mxCell>
        <mxCell id="qkkSo4X1uEeQox8-hG8_-16" value="n%10=a" style="whiteSpace=wrap;html=1;rounded=0;" vertex="1" parent="1">
          <mxGeometry x="400" y="560" width="120" height="60" as="geometry" />
        </mxCell>
        <mxCell id="qkkSo4X1uEeQox8-hG8_-23" value="" style="edgeStyle=orthogonalEdgeStyle;rounded=0;orthogonalLoop=1;jettySize=auto;html=1;" edge="1" parent="1" source="qkkSo4X1uEeQox8-hG8_-18" target="qkkSo4X1uEeQox8-hG8_-22">
          <mxGeometry relative="1" as="geometry" />
        </mxCell>
        <mxCell id="qkkSo4X1uEeQox8-hG8_-18" value="m=c*100+b*10+a" style="rounded=0;whiteSpace=wrap;html=1;" vertex="1" parent="1">
          <mxGeometry x="400" y="660" width="120" height="60" as="geometry" />
        </mxCell>
        <mxCell id="qkkSo4X1uEeQox8-hG8_-25" value="" style="edgeStyle=orthogonalEdgeStyle;rounded=0;orthogonalLoop=1;jettySize=auto;html=1;" edge="1" parent="1" source="qkkSo4X1uEeQox8-hG8_-22" target="qkkSo4X1uEeQox8-hG8_-24">
          <mxGeometry relative="1" as="geometry" />
        </mxCell>
        <mxCell id="qkkSo4X1uEeQox8-hG8_-22" value="m" style="shape=parallelogram;perimeter=parallelogramPerimeter;whiteSpace=wrap;html=1;fixedSize=1;" vertex="1" parent="1">
          <mxGeometry x="200" y="660" width="120" height="60" as="geometry" />
        </mxCell>
        <mxCell id="qkkSo4X1uEeQox8-hG8_-24" value="end" style="ellipse;whiteSpace=wrap;html=1;" vertex="1" parent="1">
          <mxGeometry x="200" y="760" width="120" height="80" as="geometry" />
        </mxCell>
      </root>
    </mxGraphModel>
  </diagram>
</mxfile>
